<?xml version="1.0" encoding="UTF-8" standalone="no"?>
<!-- Created with Inkscape (http://www.inkscape.org/) -->

<svg
   xmlns:dc="http://purl.org/dc/elements/1.1/"
   xmlns:cc="http://creativecommons.org/ns#"
   xmlns:rdf="http://www.w3.org/1999/02/22-rdf-syntax-ns#"
   xmlns:svg="http://www.w3.org/2000/svg"
   xmlns="http://www.w3.org/2000/svg"
   xmlns:xlink="http://www.w3.org/1999/xlink"
   xmlns:sodipodi="http://sodipodi.sourceforge.net/DTD/sodipodi-0.dtd"
   xmlns:inkscape="http://www.inkscape.org/namespaces/inkscape"
   width="744.09448819"
   height="1052.3622047"
   id="svg2"
   version="1.1"
   inkscape:version="0.48.4 r9939"
   sodipodi:docname="Logo2Conceptv01.svg">
  <defs
     id="defs4">
    <clipPath
       clipPathUnits="userSpaceOnUse"
       id="clipPath3081">
      <path
         style="fill:none;stroke:#000000;stroke-width:1px;stroke-linecap:butt;stroke-linejoin:miter;stroke-opacity:1"
         d="m 171.22086,608.90521 c 25.73221,-1.21379 57.3964,19.7285 60.86169,46.71956 0.8125,41.21226 1.26269,96.46957 1.26269,96.46957 l -117.68277,1.01015 -2.27285,-92.93403 c 0,0 4.29315,-48.73986 57.83124,-51.26525 z"
         id="path3083"
         inkscape:connector-curvature="0"
         sodipodi:nodetypes="sccccs" />
    </clipPath>
    <clipPath
       clipPathUnits="userSpaceOnUse"
       id="clipPath3089">
      <path
         style="fill:none;stroke:#000000;stroke-width:1px;stroke-linecap:butt;stroke-linejoin:miter;stroke-opacity:1"
         d="m 231.42857,576.6479 0.89286,33.03571 -59.64286,-0.17857 -27.14286,-31.25 c 0,0 2.67858,-1.07143 4.82143,-1.07143 2.14286,0 81.07143,-0.53571 81.07143,-0.53571 z"
         id="path3091"
         inkscape:connector-curvature="0" />
    </clipPath>
    <clipPath
       clipPathUnits="userSpaceOnUse"
       id="clipPath3106">
      <path
         style="fill:none;stroke:#000000;stroke-width:1px;stroke-linecap:butt;stroke-linejoin:miter;stroke-opacity:1"
         d="m 145.35714,565.21932 -1.96428,-98.75 c 0,0 10.17857,-43.74999 55.35714,-45.35714 L 525,420.21932 c 0,0 26.9221,9.63636 27.93225,37.28928 1.01015,27.65293 -26.1377,42.30014 -33.4613,41.79506 -7.32361,-0.50507 -8.83884,0.50508 -8.83884,0.50508 l 2.77792,3.03046 c 0,0 4.79823,0.50507 10.85914,6.31345 6.06092,5.80838 32.32488,52.2754 32.32488,52.2754 l 0.50508,16.66751 33.84011,-1.01015 -31.31473,28.28427 -111.87439,2.27284 -14.64722,16.16244 -51.0127,1.2627 0.75762,3.53553 -7.32361,10.35406 -34.85026,-1.01015 -9.09138,-7.82868 -0.75761,-5.55584 -46.21448,-0.50508 -15.9099,-16.41498 -127.27922,2.77792 -22.98097,-29.54696 1.51522,-2.27284 26.01143,-1.01015 z"
         id="path3108"
         inkscape:connector-curvature="0"
         sodipodi:nodetypes="ccc" />
    </clipPath>
    <clipPath
       clipPathUnits="userSpaceOnUse"
       id="clipPath3951">
      <path
         id="path3953"
         style="opacity:0.57613172;fill:#ffffff;fill-opacity:1;stroke:none"
         d="m 197.5,224.96307 c -4.14214,0 -7.5,-2.28374 -7.5,-5.10089 0,-2.81714 1,-7.5 7.5,-7.5 6.5,0 7.5,4.68286 7.5,7.5 0,2.81715 -3.35786,5.10089 -7.5,5.10089 z m -22.5,14.39911 47,0 0,-32 -47,0 z"
         inkscape:connector-curvature="0"
         sodipodi:nodetypes="sszssccccc" />
    </clipPath>
  </defs>
  <sodipodi:namedview
     id="base"
     pagecolor="#ffffff"
     bordercolor="#666666"
     borderopacity="1.0"
     inkscape:pageopacity="0.0"
     inkscape:pageshadow="2"
     inkscape:zoom="15.839192"
     inkscape:cx="206.00677"
     inkscape:cy="827.26738"
     inkscape:document-units="px"
     inkscape:current-layer="layer2"
     showgrid="true"
     inkscape:snap-bbox="true"
     inkscape:bbox-nodes="true"
     inkscape:snap-global="true"
     inkscape:window-width="1680"
     inkscape:window-height="1026"
     inkscape:window-x="0"
     inkscape:window-y="24"
     inkscape:window-maximized="1">
    <inkscape:grid
       type="xygrid"
       id="grid3110" />
  </sodipodi:namedview>
  <metadata
     id="metadata7">
    <rdf:RDF>
      <cc:Work
         rdf:about="">
        <dc:format>image/svg+xml</dc:format>
        <dc:type
           rdf:resource="http://purl.org/dc/dcmitype/StillImage" />
        <dc:title></dc:title>
      </cc:Work>
    </rdf:RDF>
  </metadata>
  <g
     inkscape:label="Sketch"
     inkscape:groupmode="layer"
     id="layer1"
     style="display:inline"
     sodipodi:insensitive="true">
    <g
       id="g3099"
       clip-path="url(#clipPath3106)"
       transform="matrix(0.1398963,0,0,0.1398963,169.56706,153.55749)">
      <image
         width="665"
         height="495"
         xlink:href="file:///home/b-fuse/Projects/git/aur/VisualAssets/logo2-Sketch.png"
         id="image3074"
         x="24.642849"
         y="356.29074" />
      <image
         transform="translate(29.796949,-187.11568)"
         clip-path="url(#clipPath3081)"
         y="356.29074"
         x="24.642849"
         id="image3079"
         xlink:href="file:///home/b-fuse/Projects/git/aur/VisualAssets/logo2-Sketch.png"
         height="495"
         width="665" />
      <image
         transform="translate(-32,0)"
         clip-path="url(#clipPath3089)"
         y="356.29074"
         x="24.642849"
         id="image3087"
         xlink:href="file:///home/b-fuse/Projects/git/aur/VisualAssets/logo2-Sketch.png"
         height="495"
         width="665" />
    </g>
  </g>
  <g
     inkscape:groupmode="layer"
     id="layer2"
     inkscape:label="Expermiental Constucts"
     style="opacity:0.77952756">
    <path
       sodipodi:type="arc"
       style="fill:#2429ff;fill-opacity:1;fill-rule:nonzero;stroke:none"
       id="path3166"
       sodipodi:cx="197.5"
       sodipodi:cy="219.86218"
       sodipodi:rx="7.5"
       sodipodi:ry="7.5"
       d="m 205,219.86218 a 7.5,7.5 0 1 1 -15,0 7.5,7.5 0 1 1 15,0 z" />
    <rect
       style="fill:#2429ff;fill-opacity:1;fill-rule:nonzero;stroke:none"
       id="rect3168"
       width="15"
       height="13"
       x="190"
       y="219.36218" />
    <path
       style="opacity:0.57613172000000001;fill:none;stroke:#ffffff;stroke-opacity:1;stroke-width:2;stroke-miterlimit:4;stroke-dasharray:none"
       d="m 205,219.86218 c 0,2.81715 -3.35786,5.10089 -7.5,5.10089 -4.14214,0 -7.5,-2.28374 -7.5,-5.10089 0,-2.81714 3.35786,-7.5 7.5,-7.5 4.14214,0 7.5,4.68286 7.5,7.5 z"
       id="path3170"
       inkscape:connector-curvature="0"
       sodipodi:nodetypes="sssss"
       clip-path="url(#clipPath3951)" />
  </g>
</svg>
