<?xml version="1.0" encoding="UTF-8" standalone="no"?>
<!-- Created with Inkscape (http://www.inkscape.org/) -->

<svg
   xmlns:dc="http://purl.org/dc/elements/1.1/"
   xmlns:cc="http://creativecommons.org/ns#"
   xmlns:rdf="http://www.w3.org/1999/02/22-rdf-syntax-ns#"
   xmlns:svg="http://www.w3.org/2000/svg"
   xmlns="http://www.w3.org/2000/svg"
   xmlns:sodipodi="http://sodipodi.sourceforge.net/DTD/sodipodi-0.dtd"
   xmlns:inkscape="http://www.inkscape.org/namespaces/inkscape"
   width="56"
   height="56"
   id="svg2"
   version="1.1"
   inkscape:version="0.48.4 r9939"
   sodipodi:docname="ModuleListOptionsProd.svg">
  <defs
     id="defs4" />
  <sodipodi:namedview
     id="base"
     pagecolor="#ffffff"
     bordercolor="#666666"
     borderopacity="1.0"
     inkscape:pageopacity="0.0"
     inkscape:pageshadow="2"
     inkscape:zoom="1"
     inkscape:cx="54.244241"
     inkscape:cy="16.733056"
     inkscape:document-units="px"
     inkscape:current-layer="svg2"
     showgrid="false"
     inkscape:snap-bbox="true"
     inkscape:bbox-nodes="true"
     inkscape:window-width="1680"
     inkscape:window-height="1026"
     inkscape:window-x="0"
     inkscape:window-y="24"
     inkscape:window-maximized="1"
     showguides="false"
     inkscape:guide-bbox="true"
     inkscape:snap-bbox-midpoints="true"
     inkscape:object-nodes="true"
     inkscape:snap-smooth-nodes="true"
     inkscape:object-paths="true"
     inkscape:snap-intersection-paths="true"
     inkscape:snap-page="true">
    <inkscape:grid
       type="xygrid"
       id="grid2985"
       empspacing="5"
       visible="true"
       enabled="true"
       snapvisiblegridlinesonly="true" />
    <sodipodi:guide
       orientation="0,1"
       position="27.999981,27.999979"
       id="guide4002" />
    <sodipodi:guide
       orientation="1,0"
       position="27.999981,27.999979"
       id="guide4004" />
  </sodipodi:namedview>
  <metadata
     id="metadata7">
    <rdf:RDF>
      <cc:Work
         rdf:about="">
        <dc:format>image/svg+xml</dc:format>
        <dc:type
           rdf:resource="http://purl.org/dc/dcmitype/StillImage" />
        <dc:title />
      </cc:Work>
    </rdf:RDF>
  </metadata>
  <path
     inkscape:connector-curvature="0"
     id="rect2987"
     d="M 25.53125,10.5 24,12.5 l 0,3.125 c -0.669373,0.215588 -1.289171,0.496225 -1.90625,0.8125 l -2.21875,-2.21875 -2.5,-0.34375 -3.5,3.5 0.34375,2.5 2.21875,2.21875 C 16.121229,22.710833 15.840584,23.330625 15.625,24 l -3.125,0 -2,1.53125 0,4.9375 2,1.53125 3.125,0 c 0.215584,0.669372 0.496229,1.289171 0.8125,1.90625 l -2.21875,2.21875 -0.34375,2.5 3.5,3.5 2.5,-0.34375 2.21875,-2.21875 C 22.710829,39.87877 23.330627,40.159416 24,40.375 l 0,3.125 1.53125,2 4.9375,0 1.53125,-2 0,-3.125 c 0.669373,-0.215584 1.289171,-0.49623 1.90625,-0.8125 l 2.21875,2.21875 2.5,0.34375 3.5,-3.5 -0.34375,-2.5 -2.21875,-2.21875 C 39.878771,33.289171 40.159416,32.669372 40.375,32 l 3.125,0 2,-1.53125 0,-4.9375 L 43.5,24 40.375,24 c -0.215584,-0.669375 -0.496229,-1.289167 -0.8125,-1.90625 l 2.21875,-2.21875 0.34375,-2.5 -3.5,-3.5 -2.5,0.34375 -2.21875,2.21875 C 33.289171,16.121225 32.669373,15.840588 32,15.625 l 0,-3.125 -1.53125,-2 -4.9375,0 z M 28,20.875 c 3.935034,0 7.125,3.1898 7.125,7.125 0,3.935 -3.189966,7.125 -7.125,7.125 -3.935035,0 -7.125,-3.19 -7.125,-7.125 0,-3.9352 3.189965,-7.125 7.125,-7.125 z"
     style="fill:#000000;fill-opacity:1;fill-rule:nonzero;stroke:none" />
</svg>
