<?xml version="1.0" encoding="UTF-8" standalone="no"?>
<!-- Created with Inkscape (http://www.inkscape.org/) -->

<svg
   xmlns:dc="http://purl.org/dc/elements/1.1/"
   xmlns:cc="http://creativecommons.org/ns#"
   xmlns:rdf="http://www.w3.org/1999/02/22-rdf-syntax-ns#"
   xmlns:svg="http://www.w3.org/2000/svg"
   xmlns="http://www.w3.org/2000/svg"
   xmlns:sodipodi="http://sodipodi.sourceforge.net/DTD/sodipodi-0.dtd"
   xmlns:inkscape="http://www.inkscape.org/namespaces/inkscape"
   width="53"
   height="40"
   id="svg3944"
   version="1.1"
   inkscape:version="0.48.4 r9939"
   sodipodi:docname="play-hover-prod.svg">
  <defs
     id="defs3946" />
  <sodipodi:namedview
     id="base"
     pagecolor="#ffffff"
     bordercolor="#666666"
     borderopacity="1.0"
     inkscape:pageopacity="0.0"
     inkscape:pageshadow="2"
     inkscape:zoom="3.959798"
     inkscape:cx="1.3746931"
     inkscape:cy="36.006507"
     inkscape:document-units="px"
     inkscape:current-layer="svg3944"
     showgrid="false"
     fit-margin-top="0"
     fit-margin-left="0"
     fit-margin-right="0"
     fit-margin-bottom="0"
     inkscape:window-width="1680"
     inkscape:window-height="1026"
     inkscape:window-x="0"
     inkscape:window-y="24"
     inkscape:window-maximized="1" />
  <metadata
     id="metadata3949">
    <rdf:RDF>
      <cc:Work
         rdf:about="">
        <dc:format>image/svg+xml</dc:format>
        <dc:type
           rdf:resource="http://purl.org/dc/dcmitype/StillImage" />
        <dc:title />
      </cc:Work>
    </rdf:RDF>
  </metadata>
  <path
     id="rect3921"
     d="M 3.5,0 C 1.57829,0 0,1.5783 0,3.5 l 0,33 C 0,38.42171 1.57829,40 3.5,40 l 46,0 c 1.9217,0 3.5,-1.57829 3.5,-3.5 l 0,-33 C 53,1.5783 51.4217,0 49.5,0 l -46,0 z m 0,1 46,0 C 50.885,1 52,2.115 52,3.5 l 0,33 c 0,1.385 -1.115,2.5 -2.5,2.5 l -46,0 C 2.115,39 1,37.885 1,36.5 L 1,3.5 C 1,2.115 2.115,1 3.5,1 z"
     style="font-size:medium;font-style:normal;font-variant:normal;font-weight:normal;font-stretch:normal;text-indent:0;text-align:start;text-decoration:none;line-height:normal;letter-spacing:normal;word-spacing:normal;text-transform:none;direction:ltr;block-progression:tb;writing-mode:lr-tb;text-anchor:start;baseline-shift:baseline;opacity:0.75;color:#000000;fill:#ffffff;fill-opacity:1;stroke:none;stroke-width:2;marker:none;visibility:visible;display:inline;overflow:visible;enable-background:accumulate;font-family:Sans;-inkscape-font-specification:Sans"
     inkscape:connector-curvature="0" />
  <rect
     style="opacity:0.65;fill:#000000;fill-opacity:1;fill-rule:nonzero;stroke:none"
     id="rect3933"
     width="51"
     height="38"
     x="1.0000044"
     y="1.0000026"
     ry="2.5" />
  <path
     id="path3935"
     style="fill:#ffffff;fill-opacity:1;stroke:none"
     d="M 25.66791,13.33334 32.77652,20 l -7.10861,6.66667 3.44445,0 L 36.22097,20 29.11236,13.33334 z m -8.88889,-4.44445 0,22.22222 L 28.33208,20 z"
     inkscape:connector-curvature="0" />
</svg>
