<?xml version="1.0" encoding="UTF-8" standalone="no"?>
<!-- Created with Inkscape (http://www.inkscape.org/) -->

<svg
   xmlns:dc="http://purl.org/dc/elements/1.1/"
   xmlns:cc="http://creativecommons.org/ns#"
   xmlns:rdf="http://www.w3.org/1999/02/22-rdf-syntax-ns#"
   xmlns:svg="http://www.w3.org/2000/svg"
   xmlns="http://www.w3.org/2000/svg"
   xmlns:xlink="http://www.w3.org/1999/xlink"
   xmlns:sodipodi="http://sodipodi.sourceforge.net/DTD/sodipodi-0.dtd"
   xmlns:inkscape="http://www.inkscape.org/namespaces/inkscape"
   sodipodi:docname="play-hover-reference.svg"
   height="100"
   width="160"
   inkscape:version="0.48.4 r9939"
   version="1.1"
   id="svg3029">
  <metadata
     id="metadata3035">
    <rdf:RDF>
      <cc:Work
         rdf:about="">
        <dc:format>image/svg+xml</dc:format>
        <dc:type
           rdf:resource="http://purl.org/dc/dcmitype/StillImage" />
      </cc:Work>
    </rdf:RDF>
  </metadata>
  <defs
     id="defs3033" />
  <sodipodi:namedview
     pagecolor="#747474"
     bordercolor="#666666"
     borderopacity="1"
     objecttolerance="10"
     gridtolerance="10"
     guidetolerance="10"
     inkscape:pageopacity="1"
     inkscape:pageshadow="2"
     inkscape:window-width="1680"
     inkscape:window-height="1026"
     id="namedview3031"
     showgrid="false"
     inkscape:object-nodes="true"
     inkscape:snap-smooth-nodes="true"
     inkscape:object-paths="false"
     showguides="true"
     inkscape:guide-bbox="true"
     inkscape:zoom="16"
     inkscape:cx="73.089367"
     inkscape:cy="62.482939"
     inkscape:window-x="0"
     inkscape:window-y="24"
     inkscape:window-maximized="1"
     inkscape:current-layer="g3930"
     inkscape:snap-bbox="true"
     inkscape:bbox-nodes="false"
     inkscape:snap-nodes="true"
     inkscape:snap-bbox-midpoints="true">
    <inkscape:grid
       type="xygrid"
       id="grid3807"
       empspacing="5"
       visible="true"
       enabled="true"
       snapvisiblegridlinesonly="true" />
  </sodipodi:namedview>
  <g
     inkscape:groupmode="layer"
     id="layer4"
     inkscape:label="Junk">
    <g
       style="display:none"
       id="g3825"
       transform="translate(-159,72)">
      <path
         style="fill:#000000;fill-opacity:1;stroke:none"
         d="m 70,45 0,10 5,-5 z"
         id="path3827"
         inkscape:connector-curvature="0"
         sodipodi:nodetypes="cccc" />
      <path
         style="fill:#000000;fill-opacity:1;stroke:none"
         d="m 74,47 3,3 -3,3 2,0 3,-3 -3,-3 z"
         id="path3829"
         inkscape:connector-curvature="0"
         sodipodi:nodetypes="ccccccc" />
    </g>
    <path
       sodipodi:nodetypes="cccc"
       inkscape:connector-curvature="0"
       id="path3852"
       d="m -45.132735,68.461048 0,22.222222 11.553053,-11.111111 z"
       style="display:none;fill:#ffffff;fill-opacity:1;stroke:none" />
  </g>
  <g
     inkscape:groupmode="layer"
     id="layer2"
     inkscape:label="Ref"
     style="display:none"
     sodipodi:insensitive="true">
    <image
       width="160"
       height="100"
       xlink:href="file:///home/b-fuse/Projects/git/aur/VisualAssets/play-hover-reference.png"
       id="image3037"
       x="0"
       y="0" />
  </g>
  <g
     inkscape:groupmode="layer"
     id="layer3"
     inkscape:label="New-Backup"
     style="display:none">
    <rect
       ry="2.5"
       y="33"
       x="50"
       height="38"
       width="51"
       style="opacity:0.75;fill:none;stroke:#ffffff;stroke-width:2;stroke-miterlimit:4;stroke-opacity:1;stroke-dasharray:none" />
    <rect
       style="fill:#000000;fill-opacity:1;fill-rule:nonzero;stroke:none"
       id="rect3809"
       width="51"
       height="38"
       x="50"
       y="33"
       ry="2.5" />
    <path
       id="path3817"
       style="fill:#ffffff;fill-opacity:1;stroke:none"
       d="M 74.667918,45.333333 81.776526,52 l -7.108608,6.666667 3.444444,0 L 85.220971,52 78.112362,45.333333 z m -8.888889,-4.444444 0,22.222222 L 77.332082,52 z"
       inkscape:connector-curvature="0" />
  </g>
  <g
     inkscape:label="New copy"
     id="g3930"
     inkscape:groupmode="layer">
    <path
       style="font-size:medium;font-style:normal;font-variant:normal;font-weight:normal;font-stretch:normal;text-indent:0;text-align:start;text-decoration:none;line-height:normal;letter-spacing:normal;word-spacing:normal;text-transform:none;direction:ltr;block-progression:tb;writing-mode:lr-tb;text-anchor:start;baseline-shift:baseline;opacity:0.75;color:#000000;fill:#ffffff;fill-opacity:1;stroke:none;stroke-width:2;marker:none;visibility:visible;display:inline;overflow:visible;enable-background:accumulate;font-family:Sans;-inkscape-font-specification:Sans"
       d="M 52.5 32 C 50.578297 32 49 33.578297 49 35.5 L 49 68.5 C 49 70.421703 50.578297 72 52.5 72 L 98.5 72 C 100.4217 72 102 70.421703 102 68.5 L 102 35.5 C 102 33.578297 100.4217 32 98.5 32 L 52.5 32 z M 52.5 33 L 98.5 33 C 99.885 33 101 34.115 101 35.5 L 101 68.5 C 101 69.885 99.885 71 98.5 71 L 52.5 71 C 51.115 71 50 69.885 50 68.5 L 50 35.5 C 50 34.115 51.115 33 52.5 33 z "
       id="rect3921" />
    <rect
       ry="2.5"
       y="33"
       x="50"
       height="38"
       width="51"
       id="rect3933"
       style="fill:#000000;fill-opacity:1;fill-rule:nonzero;stroke:none;opacity:0.5" />
    <path
       d="M 74.667918,45.333333 81.776526,52 l -7.108608,6.666667 3.444444,0 L 85.220971,52 78.112362,45.333333 z m -8.888889,-4.444444 0,22.222222 L 77.332082,52 z"
       style="fill:#ffffff;fill-opacity:1;stroke:none"
       id="path3935" />
  </g>
</svg>
